# xmcd
#
# Track frame offsets: 
#        150
#        10651
#        19381
#        29638
#        40021
#        53412
#        65554
#        76744
#        86006
#        95415
#        106599
#
# Disc length: 1633 seconds
#
# Revision: 1
# Processed by: cddbd v1.5PL3 Copyright (c) Steve Scherf et al.
# Submitted via: ExactAudioCopy v0.90b4
#
DISCID=77065f0b
DTITLE=Ronnie Milsap - The Crazy Cajun Recordings
DYEAR=1900
DGENRE=Country
TTITLE0=Lonely Weekends
TTITLE1=Another Love Has Ended
TTITLE2=Don't Forget About Me
TTITLE3=Not For The Love Of You
TTITLE4=Plain And Simple
TTITLE5=It Went To Your Head
TTITLE6=Hello Mary Ann
TTITLE7=Ain't No Soul Left In These Old Shoes
TTITLE8=Wish You Were Here
TTITLE9=Total Disaster
TTITLE10=Your Tears Leave Me Cold
EXTD=
EXTT0=
EXTT1=
EXTT2=
EXTT3=
EXTT4=
EXTT5=
EXTT6=
EXTT7=
EXTT8=
EXTT9=
EXTT10=
PLAYORDER=
